<svg xmlns="http://www.w3.org/2000/svg" width="120" height="61" viewBox="0 0 120 61" fill="none"><path fill-rule="evenodd" clip-rule="evenodd" d="M25.1787 0L25.3298 3.31469L25.4598 6.16281C26.7357 6.41373 29.0369 8.17307 29.5647 9.8409C30.1018 10.1324 30.4145 10.482 30.4145 10.8582C30.4145 11.1844 30.1767 11.4914 29.7611 11.7581V14.6787C29.5611 14.621 29.3611 14.5678 29.1566 14.519V11.3879L29.13 11.1954C28.7611 11.0623 28.3433 10.9558 27.8944 10.8715C27.5969 10.8154 27.2857 10.7698 26.9654 10.7351V14.1862C26.7611 14.1684 26.5611 14.1551 26.3612 14.1418L26.3612 14.1418L26.3611 14.1418L26.361 14.1418V10.6835C25.644 10.6383 24.8986 10.647 24.1742 10.7161V14.1418C23.9742 14.1507 23.7698 14.1684 23.5698 14.1862V10.7889C22.7732 10.9053 22.0208 11.1004 21.383 11.3832V14.5234C21.1786 14.5722 20.9741 14.6254 20.7785 14.6831V11.7538C20.363 11.4867 20.1252 11.18 20.1252 10.8537L20.1296 10.8582C20.1296 10.5354 20.3599 10.2321 20.7647 9.96832C21.2103 8.2677 23.5872 6.42854 24.8975 6.16459L25.0276 3.31469L25.1787 0ZM19.9963 18.8986L16.3651 50.661C17.4184 49.8845 19.1296 49.0148 20.3741 48.9349C21.903 48.8417 23.4942 49.2766 24.712 49.7558L24.9031 25.7365C24.9031 21.4146 25.2854 19.014 27.6499 18.0644H27.6588V18.0599C27.6988 18.0422 27.7388 18.0289 27.7788 18.0156L27.7788 18.0156H27.7833C27.8233 17.9978 27.8633 17.9845 27.9077 17.9712H27.9121L27.9286 17.9662L27.9575 17.9572L27.9766 17.9512C27.9977 17.9446 28.0188 17.9379 28.041 17.9313H28.0455C28.2766 17.8603 28.5211 17.8026 28.7877 17.7538C29.0544 17.705 29.3389 17.6695 29.6411 17.6428L29.7655 18.9252C29.9073 18.8457 30.0674 18.765 30.234 18.681C30.9602 18.3148 31.8101 17.8863 31.8101 17.2257C31.8101 15.8546 28.7122 14.7453 24.8898 14.7453C21.0674 14.7453 17.9696 15.8546 17.9696 17.2257C17.9696 17.888 18.8282 18.3184 19.5574 18.6839L19.5575 18.684L19.5579 18.6842L19.5579 18.6842C19.708 18.7594 19.8525 18.8319 19.983 18.903L19.9963 18.8986ZM5.47576 57.8229L0 61L42.2682 60.4054C41.9786 60.13 41.715 59.8768 41.4716 59.6429C39.5034 57.7524 38.8542 57.1287 36.4413 56.2521C34.1346 55.409 32.0634 55.3557 30.3922 55.866C30.09 55.9592 29.6278 56.1988 29.3611 56.363C28.3477 56.9931 27.561 57.4501 26.961 57.7962C26.961 57.7962 29.53 55.3468 30.2767 55.1693C30.0095 54.5448 28.9446 53.5364 28.22 52.8502C27.9562 52.6003 27.7374 52.3932 27.6188 52.2629C26.5077 51.0471 21.4941 49.7824 19.3874 50.3415C17.2806 50.9006 12.236 55.2625 12.236 55.2625C12.236 55.2625 13.3649 53.8071 13.6138 53.2302C11.6489 54.0814 10.2155 54.9578 8.35885 56.093C7.51511 56.6089 6.58395 57.1782 5.47576 57.8229ZM19.0985 51.442L13.3649 55.6086L10.5559 58.8656C12.4775 57.9311 13.8252 57.0664 14.9818 56.3243C16.6368 55.2623 17.9004 54.4516 19.8941 54.0467L22.8453 51.3266L19.0985 51.442Z" fill="#084975"></path><path d="M36.2858 27.223C36.1213 26.3932 35.6458 25.9806 34.8413 25.9806H34.099V32.3925C34.099 32.7076 34.1879 32.8318 34.4368 32.9073L34.9791 33.0714L34.9435 33.5462H31.8278L31.7923 33.0714L32.3345 32.9073C32.5879 32.8318 32.6723 32.7076 32.6723 32.3925V25.9806H31.9301C31.1256 25.9806 30.65 26.3932 30.4856 27.223L29.9211 27.1476L30.0456 25.2662H36.7303L36.8547 27.1476L36.2902 27.223H36.2858Z" fill="#084975"></path><path d="M43.8861 33.5462H41.086L41.0504 33.0936L41.5127 32.9694C41.7882 32.8939 41.8504 32.7564 41.8504 32.4546V29.9209C41.8504 29.1932 41.5215 28.7938 40.9837 28.7938C40.5437 28.7938 39.9926 29.1444 39.6015 29.6724V32.4591C39.6015 32.7608 39.677 32.8984 39.9393 32.9738L40.3926 33.0981L40.3571 33.5507H37.5525L37.517 33.0981L37.9081 32.9738C38.1481 32.8984 38.2459 32.7608 38.2459 32.4591V25.8075C38.2459 25.5058 38.157 25.3682 37.9081 25.2928L37.3925 25.1419L37.4281 24.6893L39.6015 24.5873V27.0234C39.6015 27.8265 39.5126 28.4788 39.3259 29.1311C39.877 28.3412 40.6815 27.8398 41.4238 27.8398C42.5171 27.8398 43.2105 28.5942 43.2105 29.8366V32.4591C43.2105 32.7608 43.2861 32.8851 43.5483 32.9738L43.9261 33.0981L43.8905 33.5507L43.8861 33.5462Z" fill="#084975"></path><path d="M49.6641 30.8084H46.1084C46.1573 31.9754 46.7351 32.7519 47.7529 32.7519C48.3307 32.7519 48.8596 32.5745 49.3618 32.2017L49.6374 32.5922C49.0463 33.3066 48.2551 33.6705 47.3884 33.6705C45.7661 33.6705 44.6505 32.5168 44.6505 30.8217C44.6505 29.1266 45.8417 27.8354 47.4773 27.8354C48.8329 27.8354 49.7263 28.7406 49.7263 30.1561C49.7263 30.3425 49.6996 30.6087 49.6641 30.8084ZM48.1307 30.1162C48.3307 30.1029 48.4062 30.0141 48.4062 29.7789C48.4062 29.0157 48.0062 28.461 47.4106 28.461C46.7084 28.461 46.2195 29.1621 46.1173 30.2404L48.1262 30.1162H48.1307Z" fill="#084975"></path><path d="M37.3481 44.3999C37.8992 45.1898 38.2992 45.9486 38.7037 46.947C38.557 45.9974 38.5259 45.1543 38.5259 43.9961V39.6076C38.5259 39.2038 38.4148 39.0263 38.0903 38.9465L37.2681 38.7379L37.3169 38.1255H40.7082L40.7571 38.7379L40.0637 38.9465C39.7393 39.0441 39.6281 39.2038 39.6281 39.6076V43.4459C39.6281 46.0906 39.6459 47.1733 39.7081 48.6243L38.317 48.9615L33.939 42.7049C33.2279 41.6887 32.7746 40.8013 32.4368 39.8339C32.5479 40.6548 32.5834 41.529 32.5834 42.7049V47.2842C32.5834 47.688 32.6946 47.8655 33.019 47.9454L33.8413 48.1539L33.7924 48.7663H30.4011L30.3522 48.1539L31.0456 47.9454C31.3701 47.8477 31.4812 47.688 31.4812 47.2842V39.6076C31.4812 39.2038 31.3701 39.0441 31.0456 38.9465L30.3522 38.7379L30.4011 38.1255H32.9701L37.3481 44.3999Z" fill="#084975"></path><path d="M48.3262 45.2563H43.7527C43.8194 46.7562 44.5616 47.7546 45.8684 47.7546C46.6106 47.7546 47.2906 47.5283 47.9351 47.0446L48.2907 47.546C47.5306 48.4645 46.5128 48.9305 45.3972 48.9305C43.3127 48.9305 41.8771 47.4484 41.8771 45.2697C41.8771 43.0909 43.4105 41.4314 45.5128 41.4314C47.2551 41.4314 48.4062 42.5939 48.4062 44.4132C48.4062 44.6529 48.3751 44.9945 48.3262 45.2519V45.2563ZM46.3528 44.3689C46.6106 44.3511 46.7084 44.2402 46.7084 43.934C46.7084 42.9489 46.1928 42.239 45.4328 42.239C44.5305 42.239 43.8994 43.1397 43.7705 44.5286L46.3573 44.3689H46.3528Z" fill="#084975"></path><path d="M59.6822 42.2878C59.4422 42.3543 59.2289 42.5141 59.1489 42.7892L58.3266 45.5492C58.0021 46.6319 57.6644 47.8256 57.3888 48.855H56.0332C55.7754 47.8566 55.5309 47.018 55.2732 46.2104C55.0643 45.567 54.8865 44.857 54.722 44.0805C54.562 44.8881 54.3976 45.5315 54.1887 46.1926C53.9442 46.9825 53.6864 47.901 53.4464 48.855H52.0419C51.6864 47.7413 51.2997 46.6142 50.913 45.5492L49.9441 42.8868C49.8152 42.5318 49.6552 42.4209 49.3796 42.3366L48.8285 42.1768L48.8774 41.5956H52.5619L52.6108 42.1768L52.0464 42.2878C51.7219 42.3543 51.6908 42.5629 51.7708 42.8203L52.4819 45.1099C52.6908 45.8021 52.8553 46.4189 53.0153 47.16C53.1753 46.3879 53.4198 45.4028 53.6464 44.7106C53.9042 43.8852 54.1309 43.0821 54.3087 42.3543H55.6821C55.8598 43.0954 56.0554 43.8053 56.3132 44.6751C56.5399 45.4161 56.7488 46.2547 56.9266 47.16C57.1043 46.3879 57.251 45.8199 57.4421 45.1099L58.0866 42.8203C58.1666 42.5318 58.1355 42.3543 57.8288 42.2878L57.2777 42.1768L57.3266 41.5956H60.0556L60.1044 42.1768L59.6822 42.2878Z" fill="#084975"></path><path d="M71.5493 38.5293L71.3404 40.7214H70.6293C70.5315 39.5766 69.6915 38.8355 68.527 38.8355C67.2691 38.8355 66.4736 39.5144 66.4736 40.4152C66.4736 41.2228 66.8602 41.7375 68.3492 42.3011C70.6737 43.1885 71.7582 44.1736 71.7582 45.882C71.7582 47.7057 70.3537 48.9793 67.8336 48.9793C66.8825 48.9793 65.7669 48.753 64.8113 48.3847L64.7135 45.9486L65.4557 45.8509C65.7135 47.2221 66.5536 48.0607 68.0425 48.0607C69.3003 48.0607 70.1093 47.3818 70.1093 46.3524C70.1093 45.3229 69.3803 44.7239 67.5403 43.9961C65.7802 43.3039 64.9091 42.27 64.9091 40.819C64.9091 39.1106 66.4602 37.917 68.7048 37.917C69.5448 37.917 70.5626 38.1255 71.5493 38.5293Z" fill="#084975"></path><path d="M79.4474 45.2563H74.8739C74.9405 46.7562 75.6828 47.7546 76.9895 47.7546C77.7318 47.7546 78.4118 47.5283 79.0563 47.0446L79.4118 47.546C78.6518 48.4645 77.634 48.9305 76.5184 48.9305C74.4339 48.9305 72.9983 47.4484 72.9983 45.2697C72.9983 43.0909 74.5316 41.4314 76.6339 41.4314C78.3762 41.4314 79.5274 42.5939 79.5274 44.4132C79.5274 44.6529 79.4963 44.9945 79.4474 45.2519V45.2563ZM77.474 44.3689C77.7318 44.3511 77.8295 44.2402 77.8295 43.934C77.8295 42.9489 77.314 42.239 76.5539 42.239C75.6517 42.239 75.0206 43.1397 74.8917 44.5286L77.4784 44.3689H77.474Z" fill="#084975"></path><path d="M88.7188 48.7752H85.1143L85.0654 48.1939L85.6609 48.0341C86.0165 47.9365 86.0965 47.759 86.0965 47.373V44.116C86.0965 43.1797 85.7232 42.6649 85.0298 42.6649C84.4965 42.6649 83.7853 43.1309 83.2875 43.792V47.373C83.2875 47.759 83.3853 47.9365 83.7231 48.0341L84.3053 48.1939L84.2564 48.7752H80.6563L80.6074 48.1939L81.1097 48.0341C81.4163 47.9365 81.5452 47.759 81.5452 47.373V43.0332C81.5452 42.6472 81.4341 42.4697 81.1097 42.3721L80.4474 42.1768L80.4963 41.5956L83.2742 41.4669C83.2253 41.9816 83.0964 42.5806 82.8875 43.1752C83.5986 42.1103 84.6298 41.4358 85.6032 41.4358C87.0254 41.4358 87.8477 42.3854 87.8477 44.0006V47.373C87.8477 47.759 87.9455 47.9232 88.2833 48.0341L88.7677 48.1939L88.7188 48.7752Z" fill="#084975"></path><path d="M94.3235 48.1584C93.8213 48.5932 93.0301 48.9305 92.3545 48.9305C90.9989 48.9305 90.3189 48.1584 90.3189 46.623V42.4608H89.2833L89.3633 41.6532L89.83 41.5867C90.1367 41.5379 90.3456 41.4092 90.4122 41.1208L90.7189 39.8295L92.0612 39.5721V41.5867H94.1946L94.1146 42.4564H92.0656V46.5387C92.0656 47.3774 92.3056 47.8611 92.9368 47.8611C93.3412 47.8611 93.7635 47.7457 94.1502 47.5549L94.3279 48.1495L94.3235 48.1584Z" fill="#084975"></path><path d="M95.1591 48.7752L95.1102 48.1939L95.6124 48.0341C95.9191 47.9365 96.0658 47.759 96.0658 47.373V43.0332C96.0658 42.6472 95.9547 42.4697 95.6302 42.3721L94.968 42.1768L95.0168 41.5956L97.8125 41.4669V47.3685C97.8125 47.7546 97.9236 47.9187 98.2659 48.0297L98.7503 48.1894L98.7014 48.7707H95.1635L95.1591 48.7752ZM97.8747 39.2127C97.8747 39.7629 97.4214 40.1978 96.8258 40.1978C96.2302 40.1978 95.7769 39.8251 95.7769 39.2793C95.7769 38.698 96.2613 38.2321 96.8569 38.2321C97.4525 38.2321 97.8747 38.6359 97.8747 39.2171V39.2127Z" fill="#084975"></path><path d="M107.871 48.7752H104.266L104.217 48.1939L104.813 48.0341C105.168 47.9365 105.248 47.759 105.248 47.373V44.116C105.248 43.1797 104.875 42.6649 104.182 42.6649C103.648 42.6649 102.937 43.1309 102.439 43.792V47.373C102.439 47.759 102.537 47.9365 102.875 48.0341L103.457 48.1939L103.408 48.7752H99.8081L99.7592 48.1939L100.261 48.0341C100.568 47.9365 100.697 47.759 100.697 47.373V43.0332C100.697 42.6472 100.586 42.4697 100.261 42.3721L99.5992 42.1768L99.6481 41.5956L102.426 41.4669C102.377 41.9816 102.248 42.5806 102.039 43.1752C102.75 42.1103 103.782 41.4358 104.755 41.4358C106.177 41.4358 107 42.3854 107 44.0006V47.373C107 47.759 107.097 47.9232 107.435 48.0341L107.92 48.1939L107.871 48.7752Z" fill="#084975"></path><path d="M115.302 45.2563H110.729C110.795 46.7562 111.537 47.7546 112.844 47.7546C113.586 47.7546 114.266 47.5283 114.911 47.0446L115.266 47.546C114.506 48.4645 113.489 48.9305 112.373 48.9305C110.289 48.9305 108.853 47.4484 108.853 45.2697C108.853 43.0909 110.386 41.4314 112.489 41.4314C114.231 41.4314 115.382 42.5939 115.382 44.4132C115.382 44.6529 115.351 44.9945 115.302 45.2519V45.2563ZM113.333 44.3689C113.591 44.3511 113.689 44.2402 113.689 43.934C113.689 42.9489 113.173 42.239 112.413 42.239C111.506 42.239 110.88 43.1397 110.751 44.5286L113.338 44.3689H113.333Z" fill="#084975"></path><path d="M116.395 48.7752L116.347 48.1939L116.849 48.0341C117.155 47.9365 117.284 47.759 117.284 47.373V38.8267C117.284 38.4406 117.173 38.2631 116.849 38.1655L116.187 37.9702L116.235 37.389L119.031 37.2603V47.373C119.031 47.759 119.142 47.9365 119.467 48.0341L120 48.1939L119.951 48.7752H116.395Z" fill="#084975"></path></svg>